<svg width="24" height="24" viewBox="0 0 24 24" fill="none" xmlns="http://www.w3.org/2000/svg">
<path d="M22 2H21V0H19V2H11V0H9V2H8C6.89 2 6.01 2.9 6.01 4L6 18C6 18.5304 6.21071 19.0391 6.58579 19.4142C6.96086 19.7893 7.46957 20 8 20H22C23.1 20 24 19.1 24 18V4C24 2.9 23.1 2 22 2ZM22 18H8V8H22V18ZM12 12H10V10H12V12ZM16 12H14V10H16V12ZM20 12H18V10H20V12ZM12 16H10V14H12V16ZM16 16H14V14H16V16ZM20 16H18V14H20V16Z" fill="#3054FF"/>
<foreignObject x="-2" y="1" width="25" height="25"><div xmlns="http://www.w3.org/1999/xhtml" style="backdrop-filter:blur(1px);clip-path:url(#bgblur_0_55_779_clip_path);height:100%;width:100%"></div></foreignObject><rect data-figma-bg-blur-radius="2" x="0.1" y="3.1" width="20.8" height="20.8" rx="0.9" fill="#8DA0FE" fill-opacity="0.5" stroke="url(#paint0_linear_55_779)" stroke-width="0.2"/>
<path d="M12 12H10V10H12V12ZM16 12H14V10H16V12ZM20 12H18V10H20V12ZM12 16H10V14H12V16ZM16 16H14V14H16V16ZM20 16H18V14H20V16Z" fill="white"/>
<defs>
<clipPath id="bgblur_0_55_779_clip_path" transform="translate(2 -1)"><rect x="0.1" y="3.1" width="20.8" height="20.8" rx="0.9"/>
</clipPath><linearGradient id="paint0_linear_55_779" x1="1.61539" y1="4.61538" x2="19.3846" y2="28.0385" gradientUnits="userSpaceOnUse">
<stop stop-color="#5EEBFC" stop-opacity="0.5"/>
<stop offset="0.96" stop-color="#3054FF" stop-opacity="0.3"/>
</linearGradient>
</defs>
</svg>
