<svg width="24" height="18" viewBox="0 0 24 18" fill="none" xmlns="http://www.w3.org/2000/svg">
<path d="M11.076 0C9.084 0 7.212 0.732796 5.844 1.92081C5.448 0.810516 4.332 0 3 0C2.20435 0 1.44129 0.292443 0.87868 0.812996C0.316071 1.33355 0 2.03957 0 2.77574C0 3.51191 0.316071 4.21793 0.87868 4.73849C1.44129 5.25904 2.20435 5.55148 3 5.55148C3.252 5.55148 3.492 5.51817 3.732 5.46266C3.672 5.74023 3.624 6.02891 3.612 6.32869C3.55926 7.29538 3.73459 8.26112 4.12583 9.15881C4.51707 10.0565 5.11483 10.8646 5.87759 11.527C6.64036 12.1895 7.54983 12.6903 8.54285 12.9948C9.53587 13.2993 10.5886 13.4001 11.628 13.2902C14.688 12.9794 17.244 10.781 17.856 7.99413C18.036 7.20582 18.036 6.43972 17.928 5.70692C17.82 5.04075 18.384 4.45229 19.116 4.45229H24V0H11.076ZM3 3.33089C2.664 3.33089 2.4 3.08662 2.4 2.77574C2.4 2.46486 2.664 2.22059 3 2.22059C3.336 2.22059 3.6 2.46486 3.6 2.77574C3.6 3.08662 3.336 3.33089 3 3.33089ZM10.8 9.99267C8.808 9.99267 7.2 8.50487 7.2 6.66178C7.2 4.81869 8.808 3.33089 10.8 3.33089C12.792 3.33089 14.4 4.81869 14.4 6.66178C14.4 8.50487 12.792 9.99267 10.8 9.99267Z" fill="#3054FF"/>
<foreignObject x="4.66663" y="0.666626" width="18.6666" height="18.6666"><div xmlns="http://www.w3.org/1999/xhtml" style="backdrop-filter:blur(1px);clip-path:url(#bgblur_0_48_560_clip_path);height:100%;width:100%"></div></foreignObject><rect data-figma-bg-blur-radius="2" x="6.76663" y="2.76663" width="14.4667" height="14.4667" rx="0.9" fill="#8DA0FE" fill-opacity="0.5" stroke="url(#paint0_linear_48_560)" stroke-width="0.2"/>
<path d="M10.6667 9.33333C12.1394 9.33333 13.3333 8.13943 13.3333 6.66667C13.3333 5.19391 12.1394 4 10.6667 4C9.19391 4 8 5.19391 8 6.66667C8 8.13943 9.19391 9.33333 10.6667 9.33333Z" fill="white"/>
<defs>
<clipPath id="bgblur_0_48_560_clip_path" transform="translate(-4.66663 -0.666626)"><rect x="6.76663" y="2.76663" width="14.4667" height="14.4667" rx="0.9"/>
</clipPath><linearGradient id="paint0_linear_48_560" x1="7.79483" y1="3.79483" x2="20.2051" y2="20.1538" gradientUnits="userSpaceOnUse">
<stop offset="0.045" stop-color="#3054FF" stop-opacity="0.3"/>
<stop offset="0.825" stop-color="#5EEBFC" stop-opacity="0.5"/>
</linearGradient>
</defs>
</svg>
